<svg xmlns="http://www.w3.org/2000/svg" viewBox="0 0 1200 630">
<rect width="1200" height="630" fill="#0a0a0a"/>
<line x1="0" y1="0" x2="0" y2="630" stroke="#ffffff" stroke-opacity="0.05"/><line x1="60" y1="0" x2="60" y2="630" stroke="#ffffff" stroke-opacity="0.05"/><line x1="120" y1="0" x2="120" y2="630" stroke="#ffffff" stroke-opacity="0.05"/><line x1="180" y1="0" x2="180" y2="630" stroke="#ffffff" stroke-opacity="0.05"/><line x1="240" y1="0" x2="240" y2="630" stroke="#ffffff" stroke-opacity="0.05"/><line x1="300" y1="0" x2="300" y2="630" stroke="#ffffff" stroke-opacity="0.05"/><line x1="360" y1="0" x2="360" y2="630" stroke="#ffffff" stroke-opacity="0.05"/><line x1="420" y1="0" x2="420" y2="630" stroke="#ffffff" stroke-opacity="0.05"/><line x1="480" y1="0" x2="480" y2="630" stroke="#ffffff" stroke-opacity="0.05"/><line x1="540" y1="0" x2="540" y2="630" stroke="#ffffff" stroke-opacity="0.05"/><line x1="600" y1="0" x2="600" y2="630" stroke="#ffffff" stroke-opacity="0.05"/><line x1="660" y1="0" x2="660" y2="630" stroke="#ffffff" stroke-opacity="0.05"/><line x1="720" y1="0" x2="720" y2="630" stroke="#ffffff" stroke-opacity="0.05"/><line x1="780" y1="0" x2="780" y2="630" stroke="#ffffff" stroke-opacity="0.05"/><line x1="840" y1="0" x2="840" y2="630" stroke="#ffffff" stroke-opacity="0.05"/><line x1="900" y1="0" x2="900" y2="630" stroke="#ffffff" stroke-opacity="0.05"/><line x1="960" y1="0" x2="960" y2="630" stroke="#ffffff" stroke-opacity="0.05"/><line x1="1020" y1="0" x2="1020" y2="630" stroke="#ffffff" stroke-opacity="0.05"/><line x1="1080" y1="0" x2="1080" y2="630" stroke="#ffffff" stroke-opacity="0.05"/><line x1="1140" y1="0" x2="1140" y2="630" stroke="#ffffff" stroke-opacity="0.05"/><line x1="1200" y1="0" x2="1200" y2="630" stroke="#ffffff" stroke-opacity="0.05"/><line x1="0" y1="0" x2="1200" y2="0" stroke="#ffffff" stroke-opacity="0.05"/><line x1="0" y1="60" x2="1200" y2="60" stroke="#ffffff" stroke-opacity="0.05"/><line x1="0" y1="120" x2="1200" y2="120" stroke="#ffffff" stroke-opacity="0.05"/><line x1="0" y1="180" x2="1200" y2="180" stroke="#ffffff" stroke-opacity="0.05"/><line x1="0" y1="240" x2="1200" y2="240" stroke="#ffffff" stroke-opacity="0.05"/><line x1="0" y1="300" x2="1200" y2="300" stroke="#ffffff" stroke-opacity="0.05"/><line x1="0" y1="360" x2="1200" y2="360" stroke="#ffffff" stroke-opacity="0.05"/><line x1="0" y1="420" x2="1200" y2="420" stroke="#ffffff" stroke-opacity="0.05"/><line x1="0" y1="480" x2="1200" y2="480" stroke="#ffffff" stroke-opacity="0.05"/><line x1="0" y1="540" x2="1200" y2="540" stroke="#ffffff" stroke-opacity="0.05"/><line x1="0" y1="600" x2="1200" y2="600" stroke="#ffffff" stroke-opacity="0.05"/>
<circle cx="950" cy="120" r="260" fill="#ffffff" fill-opacity="0.04"/>
<circle cx="180" cy="540" r="200" fill="#ffffff" fill-opacity="0.03"/>
<circle cx="950" cy="120" r="160" fill="none" stroke="#ffffff" stroke-opacity="0.08" stroke-dasharray="6 10"/>
<g transform="translate(600,268)" stroke="#fafafa" stroke-width="7" stroke-linecap="round" stroke-linejoin="round" fill="none">
<path d="M-64 -30 h128 v70 a10 10 0 0 1 -10 10 h-108 a10 10 0 0 1 -10 -10 z"/><path d="M-64 -30 L0 22 L64 -30"/><circle cx="42" cy="-46" r="16" fill="#fafafa" stroke="none"/>
</g>
<text x="600" y="520" text-anchor="middle" font-family="Arial, Helvetica, sans-serif" font-size="32" letter-spacing="12" fill="#fafafa" fill-opacity="0.55" font-weight="bold">CAPTURE LEADS</text>
<rect x="40" y="40" width="1120" height="550" fill="none" stroke="#ffffff" stroke-opacity="0.12" rx="28"/>
</svg>